HIERARCHY
ROOT Hips
{
	OFFSET 0.000000 0.000000 0.000000 
	CHANNELS 6 Xposition Yposition Zposition Yrotation Zrotation Xrotation 
	JOINT Lumbar
	{
		OFFSET 0.000000 0.000000 0.000000 
		CHANNELS 3 Zrotation Xrotation Yrotation
		JOINT Neck
		{
			OFFSET 0.000000 0.445665 0.000000 
			CHANNELS 3 Zrotation Xrotation Yrotation
			End Site
			{
				OFFSET 0.000000 0.227535 0.000000 
			}
		}
		JOINT RightShoulder
		{
			OFFSET 0.019635 0.377685 0.194865 
			CHANNELS 3 Zrotation Xrotation Yrotation
			JOINT RightElbow
			{
				OFFSET 0.000000 -0.243375 0.000000 
				CHANNELS 2 Zrotation Yrotation
				JOINT RightWrist
				{
					OFFSET 0.000000 -0.264825 0.000000 
					CHANNELS 2 Zrotation Xrotation
					End Site
					{
						OFFSET 0.006600 -0.176220 0.000990 
					}
				}
			}
		}
		JOINT LeftShoulder
		{
			OFFSET 0.019635 0.377685 -0.194865 
			CHANNELS 3 Zrotation Xrotation Yrotation
			JOINT LeftElbow
			{
				OFFSET 0.000000 -0.243375 0.000000 
				CHANNELS 2 Zrotation Yrotation
				JOINT LeftWrist
				{
					OFFSET 0.000000 -0.264825 0.000000 
					CHANNELS 2 Zrotation Xrotation
					End Site
					{
						OFFSET 0.006600 -0.176220 -0.000990 
					}
				}
			}
		}
	}
	JOINT RightHip
	{
		OFFSET 0.052140 -0.069960 0.075570 
		CHANNELS 3 Zrotation Xrotation Yrotation
		JOINT RightKnee
		{
			OFFSET 0.000000 -0.402270 0.000000 
			CHANNELS 1 Zrotation
			JOINT RightAnkle
			{
				OFFSET 0.000000 -0.404085 0.000000 
				CHANNELS 3 Zrotation Xrotation Yrotation
				End Site
				{
					OFFSET 0.204105 -0.089430 0.008415 
				}
			}
		}
	}
	JOINT LeftHip
	{
		OFFSET 0.052140 -0.069960 -0.075570 
		CHANNELS 3 Zrotation Xrotation Yrotation
		JOINT LeftKnee
		{
			OFFSET 0.000000 -0.402270 0.000000 
			CHANNELS 1 Zrotation
			JOINT LeftAnkle
			{
				OFFSET 0.000000 -0.404085 0.000000 
				CHANNELS 3 Zrotation Xrotation Yrotation
				End Site
				{
					OFFSET 0.204105 -0.089430 -0.008415 
				}
			}
		}
	}
}
MOTION
Frames: 25
Frame Time: 0.02
-0.00021 2e-05 -7e-05 24.7196 -23.79355 -2.51891 46.71218 -1.1175 -3.98043 -15.47463 5.91549 -0.10066 -19.62288 -4.06391 -24.09307 19.13373 102.22347 12.90323 1.44637 -24.52605 8.00341 7.09242 27.70271 -99.15342 15.92124 0.14222 39.61673 -3.10566 2.23127 -21.67155 -8.85626 -5.74077 -3.97826 44.76842 4.65888 -1.37953 -25.87137 -7.9394 4.22972 2.99265
-0.0001 0 4e-05 24.72122 -23.79162 -2.51809 46.68578 -1.11686 -3.97555 -15.48129 5.91675 -0.10079 -19.5956 -4.0577 -24.05308 19.13456 102.21898 12.88976 1.45478 -24.491 8.02374 7.09751 27.67955 -99.19303 15.91818 0.1461 39.61661 -3.22804 1.55731 -21.69 -8.78368 -5.72244 -3.94982 44.7763 4.70344 -1.22006 -25.89131 -7.9338 4.22615 2.98414
1e-05 -1e-05 0.00015 24.72287 -23.78969 -2.51728 46.6594 -1.11623 -3.97068 -15.48795 5.91803 -0.10092 -19.5684 -4.05153 -24.01314 19.13535 102.21453 12.87632 1.46317 -24.45584 8.0433 7.10561 27.65637 -99.23723 15.91642 0.14925 39.61649 -3.3501 0.88515 -21.70845 -8.71129 -5.70415 -3.92145 44.78416 4.74793 -1.06078 -25.91122 -7.92819 4.22255 2.97562
0.00012 -3e-05 0.00027 24.72449 -23.78777 -2.51646 46.63307 -1.11559 -3.9658 -15.49459 5.91929 -0.10105 -19.5412 -4.04535 -23.97326 19.13617 102.21005 12.86289 1.47156 -24.42085 8.0634 7.11139 27.63327 -99.27781 15.91367 0.15295 39.61637 -3.47211 0.21322 -21.72685 -8.63893 -5.68587 -3.89309 44.79202 4.79237 -0.90174 -25.93111 -7.9226 4.21898 2.96713
0.00023 -5e-05 0.00038 24.72608 -23.78585 -2.51565 46.60672 -1.11494 -3.96091 -15.50122 5.92053 -0.10119 -19.51393 -4.03913 -23.93334 19.13703 102.20555 12.84943 1.47996 -24.38611 8.08469 7.11241 27.61022 -99.31111 15.90889 0.15776 39.61624 -3.59443 -0.4604 -21.74521 -8.56638 -5.66755 -3.86466 44.79991 4.83683 -0.74266 -25.95103 -7.91704 4.21546 2.95865
0.00034 -7e-05 0.00049 24.72787 -23.78391 -2.51483 46.58031 -1.11435 -3.95609 -15.50795 5.92189 -0.10132 -19.48688 -4.03308 -23.89337 19.13768 102.20121 12.83603 1.48832 -24.35007 8.1007 7.13504 27.58676 -99.37766 15.91332 0.15753 39.61614 -3.71592 -1.12946 -21.76385 -8.49432 -5.64931 -3.83642 44.80768 4.88139 -0.58297 -25.97091 -7.91132 4.21169 2.95007
0.00045 -9e-05 0.0006 24.72924 -23.78201 -2.51401 46.55405 -1.11365 -3.95113 -15.51447 5.923 -0.10145 -19.45942 -4.02667 -23.85356 19.13877 102.19646 12.82253 1.49678 -24.31659 8.1269 7.11581 27.56415 -99.37977 15.89991 0.16706 39.61598 -3.83894 -1.80692 -21.78191 -8.42137 -5.63094 -3.80783 44.81568 4.92571 -0.42462 -25.99083 -7.90592 4.20843 2.9417
0.00056 -0.0001 0.00072 24.73101 -23.78009 -2.5132 46.52765 -1.11304 -3.9463 -15.52116 5.92435 -0.10158 -19.43233 -4.02063 -23.81358 19.13942 102.19228 12.80912 1.5051 -24.28092 8.14449 7.13218 27.54075 -99.43665 15.90167 0.16828 39.61591 -3.96056 -2.47671 -21.80052 -8.34923 -5.61269 -3.77956 44.82351 4.97024 -0.26513 -26.01074 -7.90023 4.20471 2.93314
0.00068 -0.00012 0.00083 24.73321 -23.77804 -2.51239 46.50104 -1.11255 -3.94161 -15.52816 5.92598 -0.10172 -19.4057 -4.01488 -23.77342 19.13964 102.18803 12.79581 1.51344 -24.24185 8.14831 7.20455 27.51641 -99.57984 15.92728 0.15649 39.61582 -4.08048 -3.13717 -21.81977 -8.27809 -5.59458 -3.75168 44.83098 5.01513 -0.10376 -26.03055 -7.89415 4.20038 2.92432
0.00078 -0.00014 0.00094 24.73279 -23.77645 -2.51155 46.47553 -1.11141 -3.93608 -15.53368 5.92596 -0.10182 -19.37647 -4.00699 -23.7344 19.14268 102.18189 12.78191 1.52224 -24.22017 8.22157 6.99231 27.49757 -99.28472 15.83166 0.21097 39.61545 -4.21023 -3.85143 -21.83523 -8.20124 -5.57564 -3.72155 44.84006 5.05825 0.04825 -26.0507 -7.89021 4.1994 2.9169
0.0009 -0.00016 0.00105 24.73797 -23.77408 -2.51079 46.4478 -1.11164 -3.93231 -15.54216 5.92944 -0.10201 -19.35268 -4.00391 -23.69293 19.13954 102.1812 12.76927 1.52969 -24.16321 8.15465 7.35615 27.46707 -99.87658 15.98146 0.13119 39.61588 -4.31919 -4.45204 -21.85875 -8.13643 -5.55845 -3.69617 44.84601 5.1049 0.21905 -26.07025 -7.88184 4.19146 2.90661
0.00107 -0.00019 0.00113 24.75835 -23.76813 -2.51004 46.413 -1.11561 -3.93359 -15.55998 5.94246 -0.10244 -19.34403 -4.01197 -23.645 19.12112 102.18233 12.75998 1.53688 -23.99612 7.64539 9.5249 27.40491 -103.2507 16.90001 -0.36829 39.61729 -4.3709 -4.73922 -21.90432 -8.10503 -5.54617 -3.68384 44.84158 5.1629 0.44941 -26.08728 -7.86052 4.16338 2.8878
0.00125 -0.00023 0.00121 24.78451 -23.76184 -2.50946 46.37614 -1.12098 -3.93668 -15.58038 5.95904 -0.10295 -19.34061 -4.0253 -23.59464 19.09616 102.19054 12.75196 1.54231 -23.79568 7.00492 12.23555 27.33119 -107.45951 18.04957 -0.99436 39.62 -4.40174 -4.91253 -21.95811 -8.0857 -5.53564 -3.67628 44.83468 5.22411 0.6969 -26.10394 -7.83491 4.12852 2.86626
0.00143 -0.00027 0.00128 24.80801 -23.7564 -2.50884 46.34089 -1.12572 -3.93863 -15.59903 5.97403 -0.10343 -19.33486 -4.03751 -23.54511 19.07312 102.2051 12.74346 1.54604 -23.61968 6.46359 14.54559 27.26226 -111.04803 19.02836 -1.5274 39.62254 -4.44235 -5.139 -22.00806 -8.06058 -5.52422 -3.66648 44.82967 5.28275 0.93161 -26.12128 -7.81174 4.09744 2.84641
0.00161 -0.0003 0.00136 24.83122 -23.74724 -2.50778 46.30287 -1.13042 -3.94146 -15.62083 5.98884 -0.1039 -19.32966 -4.04415 -23.49636 19.05457 102.18266 12.73465 1.55942 -23.40601 5.75984 17.48791 27.1944 -115.62028 20.27622 -2.20534 39.62213 -4.48193 -5.35942 -22.05803 -8.03666 -5.51314 -3.65695 44.82002 5.34613 1.18843 -26.13621 -7.78642 4.06334 2.8246
0.00179 -0.00035 0.00144 24.85696 -23.74671 -2.50803 46.27003 -1.13555 -3.94346 -15.63583 6.00495 -0.1044 -19.32364 -4.06391 -23.44588 19.02507 102.23476 12.72664 1.5534 -23.26091 5.35744 19.26732 27.12264 -118.38556 21.02987 -2.61804 39.62966 -4.51842 -5.56527 -22.11042 -8.01322 -5.50184 -3.64804 44.82117 5.40034 1.402 -26.15639 -7.76466 4.03399 2.8063
0.00204 -0.00041 0.00147 24.88365 -23.76198 -2.50898 46.25227 -1.14128 -3.93781 -15.63831 6.02303 -0.10496 -19.32146 -4.11618 -23.38653 18.9678 102.52804 12.722 1.4844 -23.33024 5.87147 17.4755 27.03439 -115.56696 20.26103 -2.20937 39.64681 -4.55396 -5.76112 -22.1638 -7.98714 -5.48896 -3.63925 44.83902 5.42912 1.50251 -26.18891 -7.75311 4.01873 2.79792
0.00229 -0.00049 0.00151 24.91368 -23.78759 -2.51186 46.23929 -1.14743 -3.93213 -15.63231 6.04244 -0.10557 -19.31669 -4.18194 -23.32592 18.89988 102.88992 12.7179 1.39749 -23.46644 6.68462 14.53319 26.94462 -110.96835 19.00446 -1.5394 39.6747 -4.58667 -5.94602 -22.22054 -7.96132 -5.4759 -3.63101 44.87102 5.44848 1.5568 -26.22758 -7.74547 4.0086 2.79325
0.00252 -0.00058 0.00157 24.94499 -23.81358 -2.51562 46.2245 -1.15358 -3.92974 -15.62602 6.06172 -0.10615 -19.30851 -4.24304 -23.26951 18.83588 103.19515 12.71249 1.32565 -23.56112 7.32531 12.27138 26.86059 -107.44681 18.03911 -1.02808 39.70483 -4.61903 -6.1342 -22.27747 -7.93607 -5.46328 -3.62282 44.9048 5.47171 1.62548 -26.26431 -7.73649 3.99657 2.7872
0.00286 -0.00062 0.00153 24.96406 -23.81748 -2.51161 46.20994 -1.15906 -3.91377 -15.63841 6.07908 -0.10667 -19.32069 -4.29799 -23.19958 18.77428 103.60516 12.71135 1.22574 -23.70222 8.11134 9.37835 26.75313 -102.84397 16.7932 -0.35603 39.70268 -4.6575 -6.32483 -22.32528 -7.90834 -5.44922 -3.61354 44.90132 5.49671 1.7232 -26.29559 -7.72541 3.98253 2.77983
0.00295 -0.00077 0.0017 25.01015 -23.87065 -2.52471 46.19379 -1.1659 -3.9258 -15.60848 6.10075 -0.10744 -19.28874 -4.36906 -23.1552 18.70681 103.81691 12.70178 1.17851 -23.76221 8.67276 7.50041 26.69643 -100.03272 16.00646 0.04909 39.77314 -4.68291 -6.51016 -22.39548 -7.88568 -5.4381 -3.60659 44.98198 5.51585 1.74858 -26.342 -7.71979 3.9739 2.77606
0.00244 -0.00118 0.00237 25.12317 -24.05039 -2.58056 46.19118 -1.17757 -4.01718 -15.47586 6.13335 -0.10787 -19.1442 -4.47998 -23.2011 18.61227 103.42997 12.66562 1.29464 -23.58746 8.49624 8.86894 26.76065 -102.82781 16.65872 -0.38121 40.01693 -4.67223 -6.6757 -22.50386 -7.8768 -5.43518 -3.60595 45.26458 5.52041 1.59197 -26.40921 -7.72743 3.97955 2.78174
0.00166 -0.00172 0.00326 25.26464 -24.28047 -2.65431 46.18308 -1.19039 -4.13619 -15.29893 6.1702 -0.10874 -18.95363 -4.60701 -23.26874 18.51473 102.84638 12.6214 1.4621 -23.32744 8.09293 11.26443 26.87896 -107.43805 17.77785 -1.08167 40.33785 -4.64868 -6.83793 -22.63911 -7.87301 -5.43526 -3.60763 45.63635 5.51973 1.36358 -26.49537 -7.74054 3.99028 2.79078
0.00092 -0.00224 0.0041 25.39741 -24.49231 -2.72249 46.16521 -1.20187 -4.24147 -15.13399 6.20566 -0.11005 -18.77854 -4.72739 -23.31417 18.42746 102.37681 12.58314 1.5969 -23.10359 7.82257 13.0825 26.98646 -111.07065 18.6497 -1.63581 40.6397 -4.63169 -7.00789 -22.7767 -7.86685 -5.43388 -3.60818 45.98502 5.52157 1.1628 -26.58519 -7.75186 3.99848 2.7981
0.00051 -0.00259 0.00473 25.51196 -24.68576 -2.77991 46.20003 -1.21673 -4.35246 -15.00206 6.23942 -0.10864 -18.62661 -4.84496 -23.41317 18.30228 101.81025 12.53582 1.76956 -22.8949 7.43396 15.3337 27.03898 -115.30027 19.65795 -2.28209 40.87502 -4.61186 -7.1527 -22.85204 -7.86079 -5.43274 -3.60896 46.26084 5.52151 0.97857 -26.62213 -7.76069 4.00826 2.80665
